<?xml version="1.0" standalone="no"?>
<!DOCTYPE svg PUBLIC "-//W3C//DTD SVG 20010904//EN"
 "http://www.w3.org/TR/2001/REC-SVG-20010904/DTD/svg10.dtd">
<svg version="1.0" xmlns="http://www.w3.org/2000/svg"
 width="300.000000pt" height="300.000000pt" viewBox="0 0 300.000000 300.000000"
 preserveAspectRatio="xMidYMid meet">
<metadata>
Created by potrace 1.10, written by Peter Selinger 2001-2011
</metadata>
<g transform="translate(0.000000,300.000000) scale(0.100000,-0.100000)"
fill="#000000" stroke="none">
<path d="M980 1882 c-44 -22 -62 -77 -38 -114 15 -23 14 -27 -27 -84 l-43 -59
-58 -1 c-33 0 -66 -3 -75 -5 -10 -2 -29 11 -48 35 -26 33 -30 44 -25 76 5 32
2 40 -22 59 -47 37 -104 10 -104 -50 0 -34 43 -71 74 -63 30 7 103 -78 81 -96
-8 -7 -17 -27 -21 -46 -6 -32 -8 -34 -49 -34 -29 0 -47 6 -60 20 -39 43 -115
15 -115 -42 0 -30 38 -68 68 -68 21 0 55 26 63 47 2 6 23 13 46 16 37 6 42 5
48 -15 4 -13 19 -35 33 -50 l25 -27 -21 -48 c-17 -40 -25 -48 -50 -51 -63 -6
-101 -78 -71 -134 15 -28 72 -50 101 -39 59 22 82 98 43 141 -18 20 -18 21 1
68 19 44 22 47 64 52 25 3 59 14 76 24 l31 18 56 -37 c32 -21 57 -46 59 -58 7
-45 55 -48 82 -4 15 23 -20 59 -53 55 -17 -2 -45 10 -76 31 l-50 34 0 62 c0
47 -5 68 -19 84 -18 20 -18 21 27 84 43 59 47 63 80 59 42 -5 84 29 93 74 5
26 1 37 -23 62 -37 40 -61 46 -103 24z m104 -55 c8 -22 6 -33 -11 -55 -52 -71
-154 -9 -112 69 25 47 105 38 123 -14z m-450 -53 c9 -8 16 -24 16 -34 0 -20
-25 -50 -41 -50 -27 0 -49 22 -49 50 0 44 44 65 74 34z m219 -175 c32 -15 57
-60 57 -104 0 -55 -52 -105 -110 -105 -34 0 -48 6 -76 34 -27 27 -34 42 -34
73 1 46 19 81 51 99 29 16 80 18 112 3z m-295 -122 c6 -52 -72 -61 -84 -10 -5
20 -2 31 16 45 20 16 25 17 44 5 12 -8 22 -26 24 -40z m530 -150 c4 -20 -25
-34 -40 -19 -15 15 -1 44 19 40 10 -2 19 -11 21 -21z m-365 -99 c26 -34 16
-73 -23 -93 -69 -36 -135 50 -79 106 28 28 76 22 102 -13z"/>
<path d="M1254 1541 c-5 -3 -9 -27 -9 -53 l-1 -48 100 0 c78 0 97 3 88 12 -7
7 -12 29 -12 50 0 43 -20 59 -51 40 -10 -7 -20 -8 -24 -2 -6 10 -78 11 -91 1z
m64 -48 c-3 -42 -21 -51 -26 -15 -4 29 4 52 18 52 7 0 10 -15 8 -37z m70 0
c-3 -38 -24 -56 -34 -29 -9 24 4 66 22 66 11 0 14 -9 12 -37z"/>
<path d="M1462 1538 c-16 -16 -15 -28 2 -28 8 0 16 7 20 15 7 19 26 20 26 1 0
-8 -13 -19 -30 -25 -20 -6 -30 -17 -30 -30 0 -24 15 -35 38 -26 13 5 14 8 3
15 -8 4 -11 15 -8 24 9 23 30 20 24 -3 -7 -27 5 -41 31 -34 22 5 31 23 11 23
-6 0 -10 12 -9 28 1 15 2 33 1 40 -1 16 -63 16 -79 0z"/>
<path d="M1584 1541 c-5 -3 -9 -27 -9 -53 -1 -45 1 -48 26 -48 26 0 27 2 22
40 -5 38 -4 40 21 40 16 0 26 6 26 14 0 10 -11 15 -39 14 -21 0 -42 -3 -47 -7z"/>
<path d="M1686 1528 c-21 -30 -20 -44 4 -68 21 -21 65 -27 75 -9 11 16 -3 23
-19 10 -12 -10 -17 -8 -26 9 -13 24 -6 70 10 70 6 0 10 -7 10 -15 0 -8 7 -15
16 -15 9 0 14 7 12 18 -5 28 -62 28 -82 0z"/>
<path d="M1788 1538 c7 -7 12 -29 12 -50 0 -41 17 -56 48 -43 16 8 16 8 0 12
-14 3 -18 15 -18 49 0 41 -2 44 -27 44 -21 0 -24 -3 -15 -12z"/>
<path d="M1860 1535 c7 -9 10 -27 7 -43 -3 -15 -2 -34 2 -40 10 -17 44 -3 37
15 -3 8 -6 30 -6 49 0 30 -3 34 -26 34 -22 0 -25 -2 -14 -15z"/>
<path d="M1942 1538 c-20 -20 -15 -76 7 -88 43 -22 81 1 81 49 0 34 -17 51
-50 51 -14 0 -31 -5 -38 -12z m48 -33 c1 -11 2 -29 1 -40 -2 -20 -2 -20 -16
-1 -16 21 -20 58 -8 70 9 9 21 -5 23 -29z"/>
<path d="M2037 1544 c6 -3 19 -27 28 -55 9 -27 23 -49 31 -49 14 0 31 46 20
57 -3 4 -6 -2 -6 -13 0 -16 -2 -17 -10 -4 -13 21 -12 62 1 58 7 -2 20 -24 29
-48 23 -60 43 -62 59 -8 7 24 18 49 23 56 8 9 -10 12 -88 11 -55 0 -94 -3 -87
-5z m145 -34 c-7 -43 -15 -42 -26 3 -6 24 -4 28 11 25 13 -2 17 -11 15 -28z"/>
<path d="M2243 1544 c-15 -7 -18 -34 -3 -34 5 0 13 8 19 18 8 13 12 14 22 5 7
-7 11 -14 8 -15 -2 -2 -17 -10 -34 -18 -18 -10 -30 -24 -30 -35 0 -17 6 -20
48 -18 27 1 50 3 52 5 1 2 0 23 -4 48 -5 41 -8 45 -36 47 -16 1 -36 0 -42 -3z"/>
<path d="M2363 1544 c-7 -3 -10 -18 -6 -40 3 -20 1 -40 -7 -49 -11 -13 -7 -15
24 -15 20 0 36 5 36 10 0 6 -4 10 -10 10 -15 0 -12 50 3 54 48 15 50 17 38 29
-9 9 -16 9 -31 -1 -12 -7 -20 -8 -20 -2 0 11 -7 12 -27 4z"/>
<path d="M2466 1534 c-9 -8 -16 -26 -16 -38 0 -45 63 -74 90 -41 15 18 -1 20
-19 3 -10 -11 -15 -9 -27 7 -14 19 -13 20 20 23 26 2 36 8 36 21 0 39 -54 56
-84 25z"/>
</g>
</svg>
